Jump_normalized_pl10_filtered_grf
version=1
nRows=25
nColumns=37
inDegrees=yes
endheader
time		1_ground_force_vx		1_ground_force_vy		1_ground_force_vz		1_ground_force_px		1_ground_force_py		1_ground_force_pz		1_ground_torque_x		1_ground_torque_y		1_ground_torque_z		2_ground_force_vx		2_ground_force_vy		2_ground_force_vz		2_ground_force_px		2_ground_force_py		2_ground_force_pz		2_ground_torque_x		2_ground_torque_y		2_ground_torque_z		3_ground_force_vx		3_ground_force_vy		3_ground_force_vz		3_ground_force_px		3_ground_force_py		3_ground_force_pz		3_ground_torque_x		3_ground_torque_y		3_ground_torque_z		4_ground_force_vx		4_ground_force_vy		4_ground_force_vz		4_ground_force_px		4_ground_force_py		4_ground_force_pz		4_ground_torque_x		4_ground_torque_y		4_ground_torque_z		
0.004500		-0.000000		0.000000		0.000000		0.136890		0.000000		0.232777		0.000000		0.000000		-0.000000		-0.000000		0.000000		0.000000		-0.137729		0.000000		0.252797		0.000000		-0.000000		0.000000		11.921031		276.766787		255.176177		0.374803		1.309386		1.915506		-0.637961		-14.811332		-13.655898		-16.042277		438.561607		327.780945		-0.265908		1.308958		1.926836		-0.774807		21.181579		15.831112		
0.006293		-0.000000		0.000000		0.000000		0.136890		0.000000		0.232777		0.000000		0.000000		-0.000000		-0.000000		0.000000		0.000000		-0.137729		0.000000		0.252797		0.000000		-0.000000		0.000000		12.116322		278.665841		257.962388		0.374781		1.309382		1.915554		-0.648169		-14.907364		-13.799822		-16.149180		443.384308		332.651395		-0.265908		1.308960		1.926871		-0.779577		21.403713		16.058246		
0.008086		-0.000000		0.000000		0.000000		0.136890		0.000000		0.232777		0.000000		0.000000		-0.000000		-0.000000		0.000000		0.000000		-0.137729		0.000000		0.252797		0.000000		-0.000000		0.000000		12.383735		280.621267		261.030471		0.374760		1.309380		1.915604		-0.662282		-15.007618		-13.959902		-16.252455		448.346872		337.594108		-0.265908		1.308960		1.926907		-0.783627		21.617444		16.277400		
0.009879		0.000000		-0.000000		-0.000000		0.136890		0.000000		0.232777		-0.000000		-0.000000		0.000000		-0.000000		0.000000		0.000000		-0.137729		0.000000		0.252797		0.000000		-0.000000		0.000000		12.722833		282.607303		264.396599		0.374738		1.309380		1.915657		-0.680311		-15.111478		-14.137722		-16.362860		453.363371		342.557920		-0.265909		1.308958		1.926944		-0.787500		21.819143		16.486377		
0.011672		0.000000		-0.000000		-0.000000		0.136890		0.000000		0.232777		-0.000000		-0.000000		0.000000		-0.000000		-0.000000		0.000000		-0.137729		0.000000		0.252797		-0.000000		-0.000000		-0.000000		13.111829		284.590726		268.077852		0.374717		1.309382		1.915717		-0.701114		-15.217599		-14.334625		-16.484459		458.361252		347.502567		-0.265909		1.308954		1.926983		-0.791465		22.007217		16.684577		
0.013465		0.000000		-0.000000		-0.000000		0.136890		0.000000		0.232777		-0.000000		-0.000000		0.000000		-0.000000		-0.000000		-0.000000		-0.137729		0.000000		0.252797		-0.000000		0.000000		-0.000000		13.550626		286.563995		272.058343		0.374696		1.309386		1.915780		-0.724699		-15.325678		-14.549904		-16.634939		463.263964		352.431667		-0.265910		1.308949		1.927024		-0.796464		22.180602		16.874065		
0.015258		0.000000		-0.000000		-0.000000		0.136890		0.000000		0.232777		-0.000000		-0.000000		0.000000		-0.000000		-0.000000		-0.000000		-0.137729		0.000000		0.252797		-0.000000		0.000000		-0.000000		14.024979		288.509751		276.331559		0.374676		1.309391		1.915845		-0.750308		-15.434680		-14.783173		-16.822514		468.010595		357.353320		-0.265911		1.308942		1.927067		-0.802977		22.339212		17.057285		
0.017051		0.000000		-0.000000		-0.000000		0.136890		0.000000		0.232777		-0.000000		-0.000000		0.000000		-0.000000		-0.000000		-0.000000		-0.137729		0.000000		0.252797		-0.000000		0.000000		-0.000000		14.506082		290.402580		280.874789		0.374656		1.309396		1.915913		-0.776391		-15.542850		-15.032906		-17.044109		472.564684		362.278605		-0.265912		1.308935		1.927113		-0.810955		22.484547		17.237152		
0.018843		0.000000		-0.000000		-0.000000		0.136890		0.000000		0.232777		-0.000000		-0.000000		0.000000		-0.000000		-0.000000		-0.000000		-0.137729		0.000000		0.252797		-0.000000		0.000000		-0.000000		14.987816		292.227594		285.649381		0.374640		1.309401		1.915982		-0.802612		-15.649055		-15.296787		-17.305881		476.877160		367.238297		-0.265914		1.308928		1.927164		-0.820774		22.617074		17.417176		
0.020636		0.000000		-0.000000		-0.000000		0.136890		0.000000		0.232777		-0.000000		-0.000000		0.000000		0.000000		-0.000000		-0.000000		-0.137729		0.000000		0.252797		-0.000000		0.000000		-0.000000		15.462116		293.962474		290.603187		0.374624		1.309405		1.916051		-0.828528		-15.751796		-15.571793		-17.607038		480.919463		372.255814		-0.265915		1.308920		1.927217		-0.832462		22.737912		17.600281		
0.022429		0.000000		-0.000000		-0.000000		0.136890		0.000000		0.232777		-0.000000		-0.000000		0.000000		0.000000		-0.000000		-0.000000		-0.137729		0.000000		0.252797		-0.000000		0.000000		-0.000000		15.918608		295.573921		295.689197		0.374611		1.309410		1.916121		-0.853586		-15.849236		-15.855419		-17.943742		484.667609		377.346055		-0.265917		1.308914		1.927276		-0.845888		22.847777		17.788515		
0.024222		0.000000		-0.000000		-0.000000		0.136890		0.000000		0.232777		-0.000000		-0.000000		0.000000		0.000000		-0.000000		-0.000000		-0.137729		0.000000		0.252797		-0.000000		0.000000		-0.000000		16.361006		297.029135		300.851529		0.374602		1.309413		1.916189		-0.878001		-15.939847		-16.144976		-18.316602		488.094038		382.524182		-0.265918		1.308909		1.927340		-0.861115		22.946685		17.983540		
0.026015		-0.000000		0.000000		0.000000		0.136890		0.000000		0.232777		0.000000		0.000000		-0.000000		0.000000		-0.000000		-0.000000		-0.137729		0.000000		0.252797		-0.000000		0.000000		-0.000000		16.794767		298.291664		306.043429		0.374594		1.309418		1.916258		-0.902096		-16.022110		-16.438480		-18.726314		491.189673		387.788705		-0.265918		1.308906		1.927408		-0.878190		23.034836		18.185742		
0.027808		-0.000000		0.000000		0.000000		0.136890		0.000000		0.232777		0.000000		0.000000		-0.000000		0.000000		0.000000		-0.000000		-0.137729		0.000000		0.252797		0.000000		0.000000		0.000000		17.224061		299.311909		311.227416		0.374588		1.309423		1.916325		-0.926146		-16.094123		-16.734830		-19.175367		493.931862		393.133508		-0.265918		1.308904		1.927481		-0.897237		23.111641		18.395164		
0.029601		-0.000000		0.000000		0.000000		0.136890		0.000000		0.232777		0.000000		0.000000		-0.000000		0.000000		0.000000		0.000000		-0.137729		0.000000		0.252797		0.000000		-0.000000		0.000000		17.667522		300.062249		316.367238		0.374586		1.309427		1.916391		-0.951206		-16.155118		-17.032970		-19.670097		496.314242		398.548307		-0.265918		1.308903		1.927558		-0.918549		23.176756		18.611303		
0.031394		-0.000000		0.000000		0.000000		0.136890		0.000000		0.232777		0.000000		0.000000		-0.000000		0.000000		0.000000		0.000000		-0.137729		0.000000		0.252797		0.000000		-0.000000		0.000000		18.135333		300.501429		321.441800		0.374584		1.309431		1.916455		-0.977898		-16.203702		-17.332859		-20.216336		498.322862		404.014493		-0.265915		1.308903		1.927640		-0.942396		23.229627		18.833380		
0.033187		-0.000000		0.000000		0.000000		0.136890		0.000000		0.232777		0.000000		0.000000		-0.000000		0.000000		0.000000		0.000000		-0.137729		0.000000		0.252797		0.000000		-0.000000		0.000000		18.629754		300.598504		326.436712		0.374582		1.309433		1.916518		-1.006413		-16.238869		-17.634705		-20.815065		499.953292		409.506014		-0.265912		1.308903		1.927724		-0.968828		23.270141		19.060301		
0.034980		-0.000000		0.000000		0.000000		0.136890		0.000000		0.232777		0.000000		0.000000		-0.000000		0.000000		0.000000		0.000000		-0.137729		0.000000		0.252797		0.000000		-0.000000		0.000000		19.158210		300.341462		331.336490		0.374580		1.309434		1.916581		-1.037216		-16.260333		-17.938390		-21.467242		501.203347		415.000633		-0.265906		1.308902		1.927811		-0.997901		23.298363		19.291242		
0.036773		-0.000000		0.000000		0.000000		0.136890		0.000000		0.232777		0.000000		0.000000		-0.000000		-0.000000		0.000000		0.000000		-0.137729		0.000000		0.252797		0.000000		-0.000000		0.000000		19.731266		299.709138		336.125360		0.374576		1.309430		1.916644		-1.070952		-16.267255		-18.243827		-22.177217		502.056357		420.476326		-0.265899		1.308900		1.927901		-1.029846		23.314071		19.525722		
0.038566		-0.000000		0.000000		0.000000		0.136890		0.000000		0.232777		0.000000		0.000000		-0.000000		-0.000000		0.000000		0.000000		-0.137729		0.000000		0.252797		0.000000		-0.000000		0.000000		20.334355		298.713541		340.788659		0.374571		1.309424		1.916706		-1.106869		-16.260001		-18.550303		-22.931681		502.526318		425.904241		-0.265891		1.308897		1.927991		-1.064077		23.318264		19.762839		
0.040359		-0.000000		0.000000		0.000000		0.136890		0.000000		0.232777		0.000000		0.000000		-0.000000		-0.000000		0.000000		0.000000		-0.137729		0.000000		0.252797		0.000000		-0.000000		0.000000		20.963590		297.358774		345.297603		0.374564		1.309415		1.916768		-1.144810		-16.238564		-18.856489		-23.722848		502.603544		431.260605		-0.265880		1.308893		1.928084		-1.100287		23.311212		20.002260		
0.042152		0.000000		-0.000000		-0.000000		0.136890		0.000000		0.232777		-0.000000		-0.000000		0.000000		-0.000000		0.000000		0.000000		-0.137729		0.000000		0.252797		0.000000		-0.000000		0.000000		21.611657		295.661424		349.627261		0.374554		1.309401		1.916831		-1.184397		-16.203282		-19.160820		-24.541428		502.294482		436.522608		-0.265869		1.308887		1.928175		-1.138098		23.293683		20.243542		
0.043944		0.000000		-0.000000		-0.000000		0.136890		0.000000		0.232777		-0.000000		-0.000000		0.000000		-0.000000		-0.000000		0.000000		-0.137729		0.000000		0.252797		-0.000000		-0.000000		-0.000000		22.266395		293.640090		353.743911		0.374542		1.309384		1.916895		-1.224990		-16.154641		-19.461271		-25.374875		501.604647		441.666525		-0.265856		1.308880		1.928267		-1.176984		23.266342		20.486183		
0.045737		0.000000		-0.000000		-0.000000		0.136890		0.000000		0.232777		-0.000000		-0.000000		0.000000		-0.000000		-0.000000		-0.000000		-0.137729		0.000000		0.252797		-0.000000		0.000000		-0.000000		22.915305		291.311126		357.602814		0.374529		1.309364		1.916961		-1.265932		-16.093132		-19.755367		-26.211526		500.532187		446.669924		-0.265844		1.308873		1.928358		-1.216465		23.229457		20.729739		
0.047530		0.000000		-0.000000		-0.000000		0.136890		0.000000		0.232777		-0.000000		-0.000000		0.000000		-0.000000		-0.000000		-0.000000		-0.137729		0.000000		0.252797		-0.000000		0.000000		-0.000000		23.547099		288.692901		361.173281		0.374516		1.309343		1.917026		-1.306609		-16.019316		-20.041196		-27.043678		499.091851		451.515850		-0.265830		1.308866		1.928449		-1.256218		23.183532		20.973560		
